<?xml version="1.0" ?><svg enable-background="new 0 0 515.91 728.5" height="100px" id="Layer_1" version="1.1" viewBox="0 0 512.00003 512" width="512px" xml:space="preserve" xmlns="http://www.w3.org/2000/svg"><defs id="defs7"/><g id="g12828" transform="translate(17310.213,-18908.13)"><path d="m -16917.228,18914.13 c -76.318,0.793 -154.518,0.1 -222.693,0.274 -24.395,-0.832 -53.702,-0.703 -76.458,18.137 l -0.04,0.04 c -25.049,20.483 -27.524,53.608 -26.854,79.936 l -0.04,0 c 0.434,82.932 0,165.978 0.156,249.04 0.03,5.226 4.781,9.968 10.007,9.968 l 30.88,0 c 5.226,0 9.985,-4.742 10.006,-9.968 0.269,-90.086 -0.531,-180.093 0.431,-269.951 1.024,-13.109 12.541,-25.36 25.525,-25.565 89.912,-1.615 182.325,-0.849 263.073,-0.82 -14.756,18.11 -13.193,42.385 -13.056,60.158 -0.919,110.634 0.399,222.984 -0.626,317.719 -0.461,4.719 -3.39,10.203 -7.31,13.446 -3.959,3.279 -7.852,4.39 -12.351,2.815 -0.158,-0.04 -0.311,-0.09 -0.47,-0.113 -9.008,-2.684 -15.742,-8.757 -21.343,-17.277 -5.6,-8.522 -9.686,-19.318 -12.626,-29.59 -0.08,-0.304 -0.167,-0.603 -0.272,-0.9 -1.715,-4.392 -6.249,-7.736 -9.773,-8.756 -105.794,-1.042 -216.33,-0.391 -312.911,-0.39 -2.763,0 -5.521,1.208 -7.389,3.245 -1.866,2.035 -2.817,4.868 -2.579,7.622 3.664,42.116 31.514,81.114 72.668,97.996 5.584,2.29 10.962,2.886 13.877,2.932 102.303,0 207.278,0 295.281,0 29.453,0.289 59.888,-37.821 56.561,-72.237 l 0,-315.569 51.09,0 c 2.693,0 5.368,-0.988 7.232,-2.932 1.864,-1.944 2.891,-4.658 2.774,-7.349 -2.063,-46.715 -36.193,-91.791 -84.354,-99.521 -0.09,0 -0.182,-0.03 -0.274,-0.04 -9.686,-1.529 -19.683,-2.253 -28.144,-2.345 z" id="path12672" style="font-size:medium;font-style:normal;font-variant:normal;font-weight:normal;font-stretch:normal;text-indent:0;text-align:start;text-decoration:none;line-height:normal;letter-spacing:normal;word-spacing:normal;text-transform:none;direction:ltr;block-progression:tb;writing-mode:lr-tb;text-anchor:start;baseline-shift:baseline;color:#000000;fill:#29464a;fill-opacity:1;fill-rule:evenodd;stroke:none;stroke-width:16;marker:none;visibility:visible;display:inline;overflow:visible;enable-background:accumulate;font-family:Sans;-inkscape-font-specification:Sans"/><rect height="32" id="rect12815" rx="16" ry="16" style="opacity:0.98999999;fill:#29464a;fill-opacity:1;fill-rule:nonzero;stroke:none" width="200" x="-17154.424" y="19019.115"/><rect height="32" id="rect12817" rx="16" ry="16" style="opacity:0.98999999;fill:#29464a;fill-opacity:1;fill-rule:nonzero;stroke:none" width="200" x="-17154.424" y="19090.668"/><rect height="32" id="rect12819" rx="16" ry="16" style="opacity:0.98999999;fill:#29464a;fill-opacity:1;fill-rule:nonzero;stroke:none" width="200" x="-17154.424" y="19162.221"/><rect height="32" id="rect12821" rx="16" ry="16" style="opacity:0.98999999;fill:#29464a;fill-opacity:1;fill-rule:nonzero;stroke:none" width="200" x="-17154.424" y="19233.773"/></g></svg>