<?xml version="1.0" ?>
<svg enable-background="new 0 0 256 256" height="100px" id="Layer_1" version="1.1" viewBox="0 0 256 256" width="100px" xml:space="preserve" xmlns="http://www.w3.org/2000/svg" xmlns:xlink="http://www.w3.org/1999/xlink">
    <g><g><path d="M16.229,55.295L66.544,4.98C69.74,1.784,74.047,0,78.564,0h114.722c9.373,0,17,7.627,17,17v18.178     c-4.64,0.25-9.125,2.508-12.064,6.528l-5.936,7.768V18H85.541v42.291c0,7.719-6.282,14-14.001,14H29.249V238h163.037v-72.714     l7.372-10.529c4.323-0.7,8.102-2.784,10.628-6.418V239c0,9.374-7.626,17-17,17H28.249c-9.373,0-17-7.627-17-17V67.315     C11.249,62.805,13.045,58.479,16.229,55.295L16.229,55.295z M34.799,62.291H71.54c1.095,0,2-0.905,2-2V23.549L34.799,62.291     L34.799,62.291z" fill="#29464a"/><path d="M50.768,151.985h87.328c-2.95,4.189-5.674,8.107-8.163,12H50.768V151.985L50.768,151.985z      M50.768,125.986h105.558l-8.4,12.001H50.768V125.986L50.768,125.986z M50.768,99.989h103.013c-2.291,3.7-2.895,8.017-1.979,12     H50.768V99.989L50.768,99.989z" fill="#29464a"/><path clip-rule="evenodd" d="M243.927,74.114l-43.421,67.269     c-0.622,0.965-1.564,1.314-2.694,1.517c-1.61,0.289-2.48-0.271-3.681-1.168c-6.291,8.985-12.394,17.7-18.094,25.843     c-11.257,16.083-23.106,33.995-39.527,42.489l-1.601-1.104l-3.73,5.326c-1.257,1.804-3.785,2.216-5.589,0.958     s-2.247-3.74-0.99-5.545l3.733-5.33l-1.671-1.17c4.318-21.802,12.248-31.404,26.441-51.682l18.636-26.621     c-2.07-1.452-3.573-3.739-1.758-6.131l36.273-47.838l-3.386-2.371l-32.2,42.137c-1.267,1.809-3.761,2.249-5.571,0.982     c-1.81-1.267-2.249-3.761-0.982-5.571l43.744-57.245c1.268-1.809,3.761-2.249,5.571-0.982c1.81,1.268,2.249,3.762,0.982,5.571     l-3.65,4.776l3.324,2.327l3.621-4.796C224.047,47.357,249.636,65.268,243.927,74.114L243.927,74.114z" fill="#29464a" fill-rule="evenodd"/><path d="M53.62,189.847c-0.82-2.045,0.173-4.368,2.219-5.188c2.045-0.819,4.368,0.174,5.188,2.219     c0.01,0.027,0.121,0.093,0.292,0.179c0.414,0.209,0.941,0.325,1.508,0.341c0.62,0.019,1.247-0.081,1.8-0.302     c0.513-0.205,0.931-0.508,1.13-0.902c0.992-1.967,3.392-2.758,5.36-1.766c1.967,0.992,2.758,3.392,1.766,5.359     c-1.15,2.277-3.078,3.832-5.286,4.715c-1.578,0.631-3.313,0.913-4.988,0.864c-1.729-0.051-3.431-0.452-4.883-1.184     C55.884,193.252,54.403,191.803,53.62,189.847L53.62,189.847z M59.806,214.281c0,2.209-1.791,4-4,4c-2.209,0-4-1.791-4-4     c0-4.021,0.982-7.178,2.61-9.468c1.535-2.161,3.597-3.52,5.964-4.104c2.212-0.545,4.619-0.38,7.02,0.473     c3.428,1.218,6.941,3.892,9.816,7.91c2.066,2.889,3.385,2.059,5.513,0.721c5.568-3.503,13.674-8.603,30.497-2.563     c2.071,0.742,3.148,3.022,2.406,5.093c-0.742,2.071-3.022,3.148-5.093,2.407c-13.166-4.727-19.327-0.85-23.56,1.812     c-6.058,3.812-9.812,6.173-16.263-2.845c-1.873-2.619-3.999-4.303-5.972-5.004c-0.938-0.333-1.781-0.421-2.458-0.255     c-0.524,0.129-0.997,0.453-1.371,0.979C60.224,210.412,59.806,212.005,59.806,214.281L59.806,214.281z" fill="#29464a"/></g></g></svg>