<?xml version="1.0" ?>
<svg enable-background="new 0 0 256 256" height="100px" id="Layer_1" version="1.1" viewBox="0 0 256 256" width="100px" xml:space="preserve" xmlns="http://www.w3.org/2000/svg" xmlns:xlink="http://www.w3.org/1999/xlink"><g><path d="M58.721,256c0-10.654,5.287-20.134,13.37-25.959c-7.43-4.004-14.196-9.068-20.097-14.994   C36.547,199.537,27,178.197,27,154.672c0-33.327,19.304-63.475,49.36-77.578c-2.766,11.211,0.363,23.405,7.963,32.053   c-14.814,9.258-24.613,25.274-25.199,42.856c-1,29.974,29.523,52.165,62.592,44.396l86.007-23.006   c4.271-1.141,8.656,1.393,9.799,5.654c1.141,4.264-1.396,8.643-5.666,9.781L128.6,211.1l3.762,12.899h64.586   C214.577,224.001,229,238.4,229,256H58.721L58.721,256z" fill="#29464a"/><path d="M139.462,162.822c-4.271,1.139-8.657-1.395-9.799-5.656c-1.142-4.264,1.396-8.643,5.667-9.781   l44.505-11.906c4.271-1.139,8.657,1.395,9.797,5.656c1.142,4.264-1.396,8.643-5.663,9.781L139.462,162.822L139.462,162.822z" fill="#29464a"/><path d="M182.52,119.821l-23.832-88.803c-1.189-4.427-5.797-7.077-10.224-5.893l-7.417,1.984l-6.482-24.146   c-0.569-2.124-2.778-3.396-4.905-2.827l-19.351,5.177c-2.128,0.568-3.404,2.774-2.834,4.898l6.481,24.146l-7.418,1.984   c-4.431,1.186-7.09,5.783-5.902,10.206l4.582,17.077C92.424,67.051,84.797,80.222,88.227,93   c3.425,12.757,16.634,20.393,29.426,16.971l0.004-0.002l6.813,25.382c1.143,4.254,5.551,6.797,9.813,5.655l42.57-11.388   C181.118,128.478,183.663,124.077,182.52,119.821z M113.521,94.534c-4.304,1.15-8.676-1.352-9.832-5.658   c-1.15-4.286,1.371-8.666,5.667-9.814c4.294-1.149,8.68,1.368,9.831,5.658C120.337,89.006,117.818,93.385,113.521,94.534z" fill="#29464a"/></g></svg>