<?xml version="1.0" ?><svg enable-background="new 0 0 500 500" height="100px" id="Layer_1" version="1.1" viewBox="0 0 500 500" width="100px" xml:space="preserve" xmlns="http://www.w3.org/2000/svg" xmlns:xlink="http://www.w3.org/1999/xlink"><g><path d="M178.064,358.207c7.045,0.457,12.924-0.85,17.642-3.92c4.72-3.07,7.796-7.288,9.224-12.65   c1.535-5.764,0.946-10.69-1.758-14.78c-2.706-4.088-7.213-8.145-13.52-12.163L178.064,358.207z" fill="#29464a"/><path d="M195.027,243.777c-6.004,0.173-10.926,1.204-14.76,3.089c-3.838,1.888-6.485,5.58-7.949,11.077   c-1.394,5.233-0.992,9.576,1.21,13.035c2.2,3.457,5.988,7.074,11.366,10.848L195.027,243.777z" fill="#29464a"/><path d="M324.575,211.848c-8.025-21.671-32.878-88.203-44.247-112.167c17.109-33.436,16.49-63.843,16.439-65.621   c-0.242-7.839-6.769-13.983-14.607-13.779c-7.837,0.212-13.988,6.76-13.858,14.579c0.021,0.494,0.624,49.116-38.366,84.632   c-2.798,2.552-4.345,5.959-4.609,9.454c-0.284,3.771,0.924,7.643,3.669,10.658c5.296,5.816,14.308,6.233,20.116,0.943   c0.847-0.771,1.675-1.547,2.491-2.327c-0.126,1.071-0.317,2.146-0.597,3.22c-3.298,12.706-16.27,20.328-28.973,17.027   c-12.707-3.3-20.328-16.272-17.027-28.976c1.151-4.433,3.482-8.244,6.567-11.191c0.196-0.201,0.385-0.407,0.595-0.598   c17.408-15.857,26.921-34.323,32.119-49.955c-3.812-0.967-7.755-1.469-11.785-1.469c-9.522,0-19.068,2.752-28.371,8.181   c-0.947,0.552-1.853,1.171-2.711,1.853L103.825,153.8c-3.91,3.104-6.704,7.397-7.96,12.23L34.227,403.322   c-1.533,5.904-0.658,12.176,2.432,17.436c3.091,5.259,8.144,9.074,14.048,10.608l184.881,48.024   c1.903,0.494,3.847,0.738,5.781,0.738c4.063,0,8.09-1.076,11.653-3.17c5.259-3.09,9.075-8.144,10.609-14.048l61.637-237.293   C326.451,221.065,326.209,216.259,324.575,211.848z M244.431,273.209c-0.882,3.315-2.855,5.857-5.915,7.631   c-3.063,1.771-6.314,2.202-9.76,1.284c-6.489-1.728-9.761-6.36-9.811-13.892c0.017-8.86-3.785-15.762-11.407-20.698l-11.007,41.329   c7.613,4.439,13.608,8.232,17.984,11.384c4.373,3.151,8.013,6.992,10.92,11.526c3.136,4.736,5.137,9.934,6.008,15.591   c0.87,5.657,0.503,11.502-1.102,17.527c-2.012,7.55-5.666,14.149-10.967,19.796c-5.299,5.647-11.944,9.641-19.943,11.977   c-8.004,2.338-16.842,2.643-26.525,0.914l-2.574,9.667c-1.041,3.907-2.18,6.655-3.418,8.239c-1.238,1.586-3.148,2.035-5.73,1.349   c-2.385-0.636-3.865-1.812-4.434-3.523c-0.574-1.713-0.455-4.093,0.357-7.14l3.129-11.751c-7.518-2.927-13.807-6.549-18.861-10.874   c-5.057-4.325-8.968-9.074-11.74-14.244c-2.771-5.171-4.491-10.24-5.154-15.207c-0.664-4.965-0.423-9.598,0.725-13.904   c0.846-3.18,2.852-5.713,6.014-7.6c3.164-1.888,6.597-2.338,10.309-1.35c2.979,0.793,5.311,2.158,6.996,4.095   c1.68,1.938,2.585,4.272,2.709,7.001c0.34,5.906,0.791,10.476,1.349,13.709c0.558,3.235,1.861,6.4,3.907,9.5   c2.047,3.098,5.124,5.868,9.225,8.311l12.303-46.198c-8.223-4.813-14.914-9.521-20.07-14.125   c-5.16-4.599-8.852-10.175-11.078-16.726c-2.23-6.553-2.177-14.198,0.151-22.941c3.034-11.391,9.147-19.763,18.339-25.12   c9.192-5.351,20.805-6.802,34.83-4.343l2.804-10.529c1.481-5.564,4.31-7.79,8.481-6.679c4.238,1.129,5.634,4.41,4.188,9.838   l-2.857,10.73c6.894,2.618,12.582,5.692,17.069,9.227c4.483,3.536,8.021,8.025,10.614,13.466c2.083,4.173,3.456,8.261,4.128,12.271   C245.285,266.734,245.224,270.23,244.431,273.209z" fill="#29464a"/><path d="M326.449,346.553c1.79,2.424,4.166,4.482,7.121,6.18c2.956,1.697,6.623,2.701,10.992,3.012l-8.959-42.962   c-2.441-0.156-4.753-0.366-6.988-0.609l-7.002,26.956C323.484,342.243,325.102,344.73,326.449,346.553z" fill="#29464a"/><path d="M465.412,397.137l-40.221-215.054c-0.865-4.624-3.127-8.871-6.48-12.169   c-0.173-0.169-17.449-17.156-35.962-34.893c-38.706-37.084-45.116-41.352-47.853-43.175c-9.202-6.126-19.327-9.363-29.283-9.363   c-1.957,0-3.89,0.124-5.793,0.365c9.697,18.106,31.32,74.742,48.198,120.317c3.428,9.254,3.928,19.194,1.446,28.738l-0.781,3.009   c0.451,0.08,0.913,0.149,1.352,0.243c5.372,1.149,10.332,3.522,14.881,7.12c3.569,2.719,6.49,5.666,8.773,8.842   c2.279,3.176,3.709,6.219,4.289,9.128c0.646,3.236,0.021,6.269-1.867,9.098c-1.893,2.831-4.517,4.582-7.881,5.252   c-6.336,1.263-11.126-1.347-14.366-7.829c-2.472-5.049-6.034-8.633-10.649-10.799l-4.002,15.406l3.828,18.359   c8.073,0.502,14.556,1.143,19.442,1.922c4.888,0.781,9.456,2.431,13.71,4.951c4.524,2.591,8.309,6.028,11.355,10.31   c3.047,4.28,5.155,9.226,6.324,14.829c1.465,7.021,1.186,13.941-0.832,20.758c-2.017,6.816-5.82,12.832-11.419,18.047   c-5.599,5.218-12.722,9.112-21.377,11.687l1.874,8.99c0.758,3.634,0.957,6.356,0.595,8.167c-0.362,1.812-1.743,2.968-4.144,3.469   c-2.219,0.462-3.918,0.108-5.09-1.062c-1.178-1.169-2.061-3.169-2.65-6.003l-2.279-10.928c-7.372,0.699-14.023,0.322-19.954-1.141   c-5.415-1.336-10.187-3.363-14.33-6.063l0.8-3.333l-23.021,88.629l154.988-28.987c5.996-1.121,11.301-4.579,14.748-9.611   C465.228,409.329,466.534,403.133,465.412,397.137z" fill="#29464a"/><path d="M369.34,343.731c2.606-4.464,3.389-9.191,2.35-14.179c-1.118-5.359-3.633-9.158-7.536-11.397   c-3.905-2.236-9.274-3.705-16.104-4.4l8.438,40.466C362.453,351.69,366.737,348.195,369.34,343.731z" fill="#29464a"/></g></svg>