<?xml version="1.0" ?>
<svg enable-background="new 0 0 256 256" height="100px" id="Layer_1" version="1.1" viewBox="0 0 256 256" width="100px" xml:space="preserve" xmlns="http://www.w3.org/2000/svg" xmlns:xlink="http://www.w3.org/1999/xlink"><g><g><path clip-rule="evenodd" d="M236.937,128c-0.312-10.8,14.194-17.066,11.795-27.592     c-2.399-10.526-18.201-9.904-22.584-19.735c-4.96-9.595,5.395-21.543-1.328-29.985c-6.724-8.441-20.692-1.014-28.9-7.968     c-8.627-6.49-4.475-21.754-14.188-26.439c-9.716-4.685-19.082,8.075-29.491,5.376C141.655,19.558,138.784,4,128,4     c-10.783,0-13.693,15.565-24.241,17.656c-10.446,2.708-19.775-10.061-29.49-5.376c-9.715,4.685-5.592,19.973-14.189,26.439     c-8.239,6.979-22.177-0.473-28.9,7.968c-6.723,8.442,3.616,20.425-1.328,29.985c-4.399,9.866-20.185,9.209-22.585,19.735     c-2.4,10.526,12.109,16.831,11.797,27.592c0.312,10.8-14.196,17.066-11.797,27.593c2.399,10.526,18.202,9.904,22.585,19.735     c4.961,9.595-5.395,21.544,1.328,29.985c6.723,8.441,20.691,1.015,28.9,7.968c8.627,6.49,4.474,21.754,14.189,26.439     c9.715,4.685,19.082-8.075,29.49-5.376C114.345,236.443,117.217,252,128,252c10.784,0,13.692-15.565,24.241-17.656     c10.445-2.708,19.775,10.062,29.491,5.376c9.714-4.685,5.592-19.973,14.188-26.439c8.239-6.978,22.176,0.473,28.9-7.968     c6.724-8.442-3.616-20.425,1.328-29.985c4.399-9.866,20.184-9.208,22.584-19.735C251.133,145.066,236.625,138.761,236.937,128     L236.937,128z M48.444,82.008c-25.367,43.995-10.313,100.252,33.625,125.653c43.937,25.401,100.119,10.327,125.488-33.669     c25.367-43.995,10.313-100.252-33.626-125.653C129.995,22.938,73.811,38.013,48.444,82.008L48.444,82.008z" fill="#29464a" fill-rule="evenodd"/><path clip-rule="evenodd" d="M58.822,88.008c-22.027,38.202-8.913,87.205,29.238,109.261     c38.151,22.056,87.092,8.924,109.117-29.277s8.912-87.205-29.239-109.26C129.788,36.676,80.849,49.807,58.822,88.008     L58.822,88.008z M179.104,100.415l-55.926,74c-2.986,3.961-8.614,4.747-12.57,1.758c-0.662-0.501-1.236-1.077-1.718-1.706     L71.36,131.941c-3.277-3.708-2.931-9.375,0.772-12.656c3.182-2.819,7.808-2.961,11.126-0.593l0.004-0.005l31.661,22.525     l50.56-52.434c3.433-3.573,9.107-3.683,12.675-0.246c3.308,3.185,3.644,8.3,0.94,11.876L179.104,100.415L179.104,100.415z" fill="#29464a" fill-rule="evenodd"/></g></g></svg>