<?xml version="1.0" ?><svg height="100px" version="1.1" viewBox="0 0 48 30" width="48px" xml:space="preserve" xmlns="http://www.w3.org/2000/svg" xmlns:xlink="http://www.w3.org/1999/xlink"><g transform="translate(-98 -1160)"><g id="Russia" xmlns="http://www.w3.org/2000/svg" xmlns:xlink="http://www.w3.org/1999/xlink"><rect height="1" width="1" x="113" y="1171"/><rect height="1" width="1" x="114" y="1170"/><rect height="1" width="2" x="115" y="1169"/><rect height="1" width="2" x="116" y="1165"/><rect height="1" width="1" x="121" y="1166"/><rect height="1" width="1" x="122" y="1167"/><rect height="1" width="2" x="128" y="1167"/><rect height="1" width="1" x="135" y="1162"/><rect height="1" width="1" x="143" y="1170"/><rect height="1" width="1" x="144" y="1175"/><rect height="1" width="1" x="144" y="1177"/><rect height="1" width="1" x="143" y="1178"/><rect height="1" width="1" x="139" y="1177"/><rect height="1" width="1" x="141" y="1180"/><rect height="2" width="1" x="140" y="1178"/><g><path d="M141,1174l3,1l-1-4l-2-2v-1h1v-1h-1v-3l-2,1v-1l1-1v-1l-1-1l-3,3l-1,3l-2-1v2h-2v2l-2,1l-1-1h-1v1h-2v-2h-2v1l-3,1l-2,2     v-2h-1l-1,2l-2,1l-2-2h-2v-3h-2l-2,3h-3l-1,2v1l-1,1l1,4l-3,1v1l2,3v2h1l1-3h1v-2h3l2,2h1v-1h4l1,1h1l1,2l1,1l2,1l1-1h4v-2l1,1h4     l1-1h2v-2l1-1l2,1h3v3h2v-5l-3-3h-1v-3l2-2v-3h1v2L141,1174z"/></g></g></g></svg>