<?xml version="1.0" encoding="utf-8"?>
<!-- Generator: Adobe Illustrator 21.0.0, SVG Export Plug-In . SVG Version: 6.00 Build 0)  -->
<svg width="4px" height="4px" version="1.1" id="Слой_1" xmlns="http://www.w3.org/2000/svg" xmlns:xlink="http://www.w3.org/1999/xlink" x="0px" y="0px"
	 viewBox="0 0 4 4" style="enable-background:new 0 0 4 4;" xml:space="preserve">
<style type="text/css">
	.st0{fill:none; opacity: .5}
</style>
<title>Монтажная область 14</title>
<path d="M2,0.5C2,0.8,1.8,1,1.5,1S1,0.8,1,0.5S1.2,0,1.5,0S2,0.2,2,0.5z M3,1.5C3,1.8,2.8,2,2.5,2S2,1.8,2,1.5S2.2,1,2.5,1
	S3,1.2,3,1.5z M4,0.5C4,0.8,3.8,1,3.5,1S3,0.8,3,0.5S3.2,0,3.5,0S4,0.2,4,0.5z M2,2.5C2,2.8,1.8,3,1.5,3S1,2.8,1,2.5S1.2,2,1.5,2
	S2,2.2,2,2.5z M1,3.5C1,3.8,0.8,4,0.5,4S0,3.8,0,3.5S0.2,3,0.5,3S1,3.2,1,3.5z M3,3.5C3,3.8,2.8,4,2.5,4S2,3.8,2,3.5S2.2,3,2.5,3
	S3,3.2,3,3.5z M4,2.5C4,2.8,3.8,3,3.5,3S3,2.8,3,2.5S3.2,2,3.5,2S4,2.2,4,2.5z M1,1.5C1,1.8,0.8,2,0.5,2S0,1.8,0,1.5S0.2,1,0.5,1
	S1,1.2,1,1.5z"/>
<rect class="st0" width="4" height="4"/>
</svg>
